# xmcd CD database file
#
# Track frame offsets:
#	150
#	51901
#	95907
#	125554
#	177291
#	227581
#	262208
#
# Disc length: 3937 seconds
#
# Revision: 0
# Processed by: cddbd v1.5.1PL2 Copyright (c) Steve Scherf et al.
# Submitted via: CDex 1.51
#
DISCID=650f5f07
DTITLE=Eastwind - Live at Performance Works
DYEAR=1999
DGENRE=Jazz
TTITLE0=Q Factor
TTITLE1=Mary Anne
TTITLE2=A Gift
TTITLE3=Dark to Light
TTITLE4=Saluda
TTITLE5=Jauziero
TTITLE6=Hill
EXTD=YEAR: 1999
EXTT0=
EXTT1=
EXTT2=
EXTT3=
EXTT4=
EXTT5=
EXTT6=
PLAYORDER=
